<?xml version="1.0" encoding="UTF-8" standalone="no"?>
<!-- Created with Inkscape (http://www.inkscape.org/) -->

<svg
   id="svg5"
   version="1.1"
   viewBox="0 0 210 297"
   height="297mm"
   width="210mm"
   inkscape:version="1.2.2 (b0a8486541, 2022-12-01)"
   sodipodi:docname="plain.svg"
   inkscape:export-filename="plain.png"
   inkscape:export-xdpi="96"
   inkscape:export-ydpi="96"
   xmlns:inkscape="http://www.inkscape.org/namespaces/inkscape"
   xmlns:sodipodi="http://sodipodi.sourceforge.net/DTD/sodipodi-0.dtd"
   xmlns="http://www.w3.org/2000/svg"
   xmlns:svg="http://www.w3.org/2000/svg">
  <sodipodi:namedview
     id="namedview7"
     pagecolor="#ffffff"
     bordercolor="#999999"
     borderopacity="1"
     inkscape:showpageshadow="0"
     inkscape:pageopacity="0"
     inkscape:pagecheckerboard="0"
     inkscape:deskcolor="#d1d1d1"
     inkscape:document-units="mm"
     showgrid="false"
     inkscape:zoom="0.16147534"
     inkscape:cx="-780.30491"
     inkscape:cy="1458.427"
     inkscape:window-width="1920"
     inkscape:window-height="1010"
     inkscape:window-x="0"
     inkscape:window-y="0"
     inkscape:window-maximized="1"
     inkscape:current-layer="layer1" />
  <defs
     id="defs2" />
  <g
     inkscape:label="Слой 1"
     inkscape:groupmode="layer"
     id="layer1">
    <g
       id="g1918"
       transform="translate(-355.47932,18.745548)"
       style="stroke:#000000;stroke-opacity:1" />
    <g
       id="g621">
      <path
         id="path465"
         style="fill:#b3b3b3;fill-rule:evenodd;stroke:#000000;stroke-width:0.4;stroke-opacity:1"
         inkscape:transform-center-x="1.3228346e-06"
         inkscape:transform-center-y="-1.5836783e-06"
         d="m -244.60237,38.446154 v 31.655432 a 81.799461,81.799461 0 0 1 81.79914,81.799144 81.799461,81.799461 0 0 1 -81.79914,81.79966 81.799461,81.799461 0 0 1 -70.84063,-40.89983 l 32.03628,65.7133 10.82673,-29.7465 66.78094,29.7465 -10.82673,-29.7465 70.27788,-20.13883 -27.41435,-15.82745 40.89105,-60.60147 -31.17484,5.49734 -7.629,-72.707196 -20.34759,24.249166 z M -315.443,192.80056 a 81.799461,81.799461 0 0 1 -10.95902,-40.89983 81.799461,81.799461 0 0 1 81.79965,-81.799144 l -72.92784,-5.111832 20.34811,24.249166 -59.15195,42.96069 31.17484,5.49682 -17.69814,70.9321 z m 70.84063,-112.552306 a 71.652771,71.652771 0 0 0 -71.65299,71.652476 71.652771,71.652771 0 0 0 71.65299,71.65299 71.652771,71.652771 0 0 0 71.65248,-71.65299 71.652771,71.652771 0 0 0 -71.65248,-71.652476 z" />
    </g>
    <g
       id="g922"
       style="stroke:#010101;stroke-opacity:1">
      <circle
         style="fill:#f2f2f2;fill-rule:evenodd;stroke:#010101;stroke-width:0.4;stroke-opacity:1"
         id="path86436"
         cx="-244.60237"
         cy="38.446152"
         r="18.944994" />
      <circle
         style="fill:#f2f2f2;fill-rule:evenodd;stroke:#010101;stroke-width:0.4;stroke-opacity:1"
         id="circle86438"
         cx="-171.67505"
         cy="64.989754"
         r="18.944994" />
      <circle
         style="fill:#f2f2f2;fill-rule:evenodd;stroke:#010101;stroke-width:0.4;stroke-opacity:1"
         id="circle86440"
         cx="-132.8712"
         cy="132.19962"
         r="18.944994" />
      <circle
         style="fill:#f2f2f2;fill-rule:evenodd;stroke:#010101;stroke-width:0.4;stroke-opacity:1"
         id="circle86442"
         cx="-146.3479"
         cy="208.62852"
         r="18.944994" />
      <circle
         style="fill:#f2f2f2;fill-rule:evenodd;stroke:#010101;stroke-width:0.4;stroke-opacity:1"
         id="circle86444"
         cx="-205.79906"
         cy="258.51385"
         r="18.944994" />
      <circle
         style="fill:#f2f2f2;fill-rule:evenodd;stroke:#010101;stroke-width:0.4;stroke-opacity:1"
         id="circle86448"
         cx="-283.40671"
         cy="258.51385"
         r="18.944994" />
      <circle
         style="fill:#f2f2f2;fill-rule:evenodd;stroke:#010101;stroke-width:0.4;stroke-opacity:1"
         id="circle86450"
         cx="-342.85736"
         cy="208.62852"
         r="18.944994" />
      <circle
         style="fill:#f2f2f2;fill-rule:evenodd;stroke:#010101;stroke-width:0.4;stroke-opacity:1"
         id="circle86452"
         cx="-356.33405"
         cy="132.19962"
         r="18.944994" />
      <circle
         style="fill:#f2f2f2;fill-rule:evenodd;stroke:#010101;stroke-width:0.4;stroke-opacity:1"
         id="circle86454"
         cx="-317.53021"
         cy="64.989754"
         r="18.944994"
         inkscape:export-filename="circle86454.png"
         inkscape:export-xdpi="96"
         inkscape:export-ydpi="96" />
    </g>
  </g>
</svg>
